<?xml version="1.0" encoding="utf-8"?>
<!-- Generator: Adobe Illustrator 24.1.2, SVG Export Plug-In . SVG Version: 6.00 Build 0)  -->
<svg version="1.1" id="Layer_1" xmlns="http://www.w3.org/2000/svg" xmlns:xlink="http://www.w3.org/1999/xlink" x="0px" y="0px"
	 viewBox="0 0 242.46 54.43" style="enable-background:new 0 0 242.46 54.43;" xml:space="preserve">
<style type="text/css">
	.Arched_x0020_Green{fill:url(#SVGID_1_);stroke:#FFFFFF;stroke-width:0.25;stroke-miterlimit:1;}
	.st0{fill:#003867;}
</style>
<linearGradient id="SVGID_1_" gradientUnits="userSpaceOnUse" x1="-176.2651" y1="552.0708" x2="-175.558" y2="551.3637">
	<stop  offset="0" style="stop-color:#259E2E"/>
	<stop  offset="0.9831" style="stop-color:#1C381D"/>
</linearGradient>
<g>
	<g>
		<path class="st0" d="M3.14,22.77v-0.8c0.54-0.25,1.04-0.54,1.5-0.87c0.2-1.62,0.31-5.02,0.31-10.2c0-3.54-0.04-5.88-0.11-7.03
			c-0.03-0.61-0.14-1-0.32-1.16c-0.18-0.16-0.95-0.3-2.3-0.41V1.05c2.43,0.08,4.35,0.13,5.76,0.13l8.52-0.13
			c0.9,0,1.7,0.04,2.43,0.11l0.11,0.17c-0.21,1.13-0.37,2.63-0.46,4.5h-1.22c-0.05-1.5-0.11-2.3-0.18-2.41
			c-0.07-0.1-0.3-0.2-0.71-0.29c-0.86-0.19-2.18-0.28-3.95-0.28c-0.87,0-1.89,0.04-3.05,0.13c-0.14,3.18-0.23,5.71-0.25,7.59
			c1.1,0.08,2.14,0.13,3.11,0.13c1.43,0,2.3-0.05,2.59-0.14c0.18-0.06,0.3-0.21,0.37-0.45c0.06-0.19,0.13-0.84,0.22-1.97h1.34
			c-0.05,1.75-0.08,2.89-0.08,3.42l0.08,3.5h-1.34c-0.07-1.35-0.16-2.13-0.28-2.33c-0.06-0.12-0.2-0.21-0.42-0.26
			c-0.52-0.11-1.67-0.17-3.48-0.17c-0.57,0-1.23,0.04-1.99,0.13c-0.02,0.54-0.03,1.1-0.03,1.66c0,2.93,0.05,5.19,0.16,6.77
			l3.06,0.04c1.74,0,3.34-0.1,4.78-0.29c0.25-0.95,0.48-2.02,0.71-3.23h1.34c-0.26,1.83-0.42,3.6-0.46,5.29
			c-0.94,0.08-1.84,0.13-2.7,0.13c-0.57,0-1.68-0.02-3.35-0.06c-1.55-0.04-2.98-0.06-4.29-0.06C6.85,22.65,5.04,22.69,3.14,22.77z"
			/>
		<path class="st0" d="M21.38,9.31V8.05c1.85,0.06,3.11,0.08,3.77,0.08l5.8-0.08c1.69,0,2.98,0.27,3.89,0.83
			c0.9,0.55,1.35,1.33,1.35,2.34c0,1.74-1.59,2.92-4.78,3.55c2.28,0.19,3.74,0.6,4.39,1.24c0.65,0.64,0.98,1.42,0.98,2.34
			c0,1.19-0.62,2.22-1.86,3.11c-1.24,0.89-3.19,1.33-5.86,1.33c-0.5,0-1-0.01-1.52-0.03c-1.24-0.04-1.9-0.06-1.99-0.06
			c-0.57,0-1.73,0.03-3.49,0.08v-0.71c0.63-0.37,1.08-0.69,1.36-0.96c0.13-1.42,0.19-2.62,0.19-3.58c0-4.97-0.06-7.57-0.2-7.81
			C23.27,9.48,22.6,9.34,21.38,9.31z M27.59,9.72c-0.06,1.58-0.09,2.7-0.09,3.36v1.17c0.51,0.03,0.91,0.05,1.22,0.05
			c2.18,0,3.27-0.85,3.27-2.54c0-1.49-0.95-2.24-2.85-2.24C28.61,9.52,28.1,9.59,27.59,9.72z M27.5,15.7v1.31
			c0,2.15,0.03,3.56,0.09,4.21c0.62,0.08,1.11,0.13,1.48,0.13c1.04,0,1.89-0.24,2.55-0.73c0.66-0.48,0.99-1.2,0.99-2.16
			c0-0.98-0.35-1.71-1.04-2.18c-0.69-0.48-1.58-0.72-2.67-0.72C28.55,15.56,28.08,15.61,27.5,15.7z"/>
		<path class="st0" d="M38.9,10.15V8.98c1.82-0.16,3.32-0.4,4.5-0.74l1.66-0.52c0.14,0,0.22,0.12,0.22,0.36
			c0,0.2-0.02,0.48-0.05,0.85l-0.04,1.42l2.52-1.99c0.53-0.42,1.41-0.64,2.64-0.64c1.75,0,3.15,0.54,4.21,1.63
			c1.06,1.09,1.58,2.55,1.58,4.38c0,0.92-0.13,1.83-0.39,2.73c-0.26,0.89-0.58,1.6-0.94,2.13c-0.36,0.53-1,1.15-1.91,1.85
			c-1.56,1.26-2.5,1.97-2.8,2.15c-0.59,0.34-1.3,0.51-2.13,0.51c-0.46,0-0.93-0.06-1.4-0.17c-0.47-0.11-0.93-0.28-1.38-0.5l0.06,4.7
			c0.04,1.13,0.16,1.79,0.36,1.98c0.2,0.19,0.97,0.28,2.31,0.28v1.26c-1.61-0.06-3.01-0.09-4.2-0.09c-2.28,0-3.89,0.03-4.82,0.09
			V29.4c1.13-0.03,1.77-0.09,1.94-0.19c0.11-0.06,0.19-0.16,0.24-0.29c0.1-0.25,0.17-1.31,0.21-3.19c0.03-2.63,0.04-4.59,0.04-5.87
			l-0.03-6.17c-0.01-1.81-0.07-2.85-0.17-3.11c-0.05-0.13-0.13-0.23-0.23-0.3C40.71,10.2,40.04,10.15,38.9,10.15z M45.19,19.42
			c0.47,0.59,0.98,1.04,1.53,1.35c0.55,0.3,1.15,0.46,1.79,0.46c1.07,0,1.94-0.46,2.63-1.38c0.68-0.92,1.02-2.4,1.02-4.45
			c0-1.65-0.35-2.9-1.04-3.75c-0.7-0.85-1.58-1.28-2.66-1.28c-0.54,0-1.08,0.13-1.63,0.39c-0.55,0.26-1.09,0.65-1.63,1.18V19.42z"/>
		<path class="st0" d="M58.73,15.42c0-2.45,0.57-4.29,1.72-5.52c1.37-1.46,3.36-2.19,5.95-2.19c2.58,0,4.46,0.59,5.65,1.75
			c1.19,1.17,1.78,3.01,1.78,5.54c0,2.59-0.68,4.59-2.05,6c-1.37,1.41-3.27,2.11-5.71,2.11c-2.39,0-4.22-0.66-5.47-1.97
			C59.35,19.83,58.73,17.92,58.73,15.42z M63.01,14.36c0,2.76,0.35,4.72,1.06,5.89c0.55,0.9,1.37,1.35,2.47,1.35
			c0.96,0,1.71-0.39,2.23-1.15c0.52-0.77,0.78-2.16,0.78-4.18c0-2.78-0.32-4.7-0.96-5.77c-0.53-0.85-1.35-1.28-2.47-1.28
			c-0.96,0-1.72,0.39-2.28,1.17C63.28,11.17,63.01,12.49,63.01,14.36z"/>
		<path class="st0" d="M86.47,20.54l-2.27,1.93c-0.49,0.43-1.31,0.64-2.47,0.64c-1.84,0-3.24-0.59-4.19-1.76
			c-0.96-1.17-1.43-2.59-1.43-4.25c0-2.74,0.98-4.99,2.95-6.74c1.97-1.76,3.66-2.63,5.06-2.63c0.77,0,1.56,0.32,2.34,0.97V6.02
			c0-1.47-0.04-2.36-0.11-2.68c-0.07-0.32-0.2-0.52-0.37-0.59c-0.17-0.07-0.87-0.12-2.08-0.15V1.47c2.37-0.24,4.45-0.73,6.25-1.47
			l0.42,0.37c-0.09,0.77-0.19,3.41-0.3,7.93v1.99l2.27-1.93c0.49-0.43,1.25-0.64,2.31-0.64c1.69,0,3.07,0.53,4.14,1.58
			c1.07,1.05,1.6,2.53,1.6,4.43c0,2.4-0.83,4.56-2.5,6.49c-1.67,1.93-3.38,2.89-5.14,2.89c-0.94,0-1.83-0.31-2.68-0.93v2.89
			c0,2.33,0.1,3.62,0.3,3.86c0.2,0.24,0.98,0.35,2.34,0.35v1.26c-0.01,0-0.32-0.01-0.92-0.03c-1.31-0.03-2.29-0.05-2.94-0.05
			c-2.82,0-4.5,0.03-5.04,0.08v-1.26c1.14-0.03,1.79-0.11,1.97-0.22c0.17-0.12,0.3-0.62,0.36-1.52c0.07-0.9,0.1-2.17,0.1-3.81V20.54
			z M86.47,18.91v-7.46c-0.8-0.98-1.72-1.47-2.76-1.47c-1.18,0-2.1,0.51-2.77,1.54c-0.67,1.02-1.01,2.34-1.01,3.94
			c0,1.62,0.37,2.86,1.12,3.72c0.75,0.86,1.65,1.29,2.71,1.29C84.63,20.47,85.53,19.95,86.47,18.91z M90.29,11.92v7.45
			c0.79,1.24,1.71,1.85,2.75,1.85c1.07,0,1.96-0.5,2.68-1.5c0.72-1,1.07-2.41,1.07-4.24c0-1.61-0.34-2.87-1.02-3.77
			c-0.68-0.9-1.54-1.36-2.58-1.36C92.23,10.36,91.27,10.88,90.29,11.92z"/>
		<path class="st0" d="M116.03,8.05l1.99,0.08l3.63-0.08v1.26c-1.17,0.03-1.83,0.15-1.99,0.34c-0.16,0.2-0.24,1.91-0.24,5.14
			c0,4.01,0.07,6.12,0.21,6.34c0.14,0.22,0.81,0.35,2.01,0.39v1.26c-0.03,0-0.34-0.01-0.94-0.02c-1.19-0.04-2.28-0.06-3.27-0.06
			c-1.13,0-2.57,0.03-4.31,0.08v-1.26c1.28-0.07,1.99-0.22,2.13-0.43c0.14-0.21,0.21-1.36,0.21-3.46l-0.03-6.26
			c-3.3,4.93-6.05,8.72-8.27,11.36c-0.77,0.03-1.59,0.11-2.45,0.25l-0.18-0.17c0.19-2.23,0.29-4.16,0.29-5.79
			c0-4.65-0.06-7.09-0.19-7.32c-0.13-0.23-0.81-0.36-2.03-0.4V8.05l0.93,0.02c1.13,0.05,2.22,0.07,3.25,0.07
			c1.21,0,2.65-0.03,4.29-0.08v1.26c-1.42,0.04-2.17,0.21-2.24,0.5c-0.07,0.29-0.11,1.18-0.11,2.66v6.27
			C112.65,13.44,115.09,9.88,116.03,8.05z"/>
		<path class="st0" d="M129.74,15.71v1.9c0,1.97,0.04,3.1,0.12,3.39c0.08,0.3,0.82,0.47,2.22,0.51v1.26c-0.01,0-0.32-0.01-0.93-0.02
			c-1.21-0.04-2.33-0.06-3.35-0.06c-1.01,0-2.4,0.03-4.18,0.08v-1.26c1.18-0.04,1.84-0.17,1.99-0.37c0.15-0.2,0.23-2,0.23-5.38
			c0-3.84-0.07-5.87-0.21-6.09c-0.14-0.22-0.81-0.34-2.01-0.37V8.05c0.03,0,0.34,0.01,0.93,0.03c1.16,0.04,2.24,0.06,3.25,0.06
			c1.17,0,2.6-0.03,4.29-0.08v1.26c-1.42,0.04-2.17,0.21-2.24,0.5c-0.07,0.29-0.11,1.18-0.11,2.67v1.69
			c1.1,0.06,2.19,0.09,3.26,0.09c1.32,0,2.42-0.03,3.33-0.09v-1.69c0-1.52-0.04-2.42-0.13-2.69c-0.09-0.27-0.83-0.43-2.22-0.47V8.05
			c1.69,0.06,3.12,0.08,4.29,0.08c1.05,0,2.45-0.03,4.18-0.08v1.26c-1.16,0.03-1.83,0.15-1.98,0.34c-0.16,0.2-0.24,1.91-0.24,5.14
			c0,4.01,0.07,6.12,0.21,6.34c0.14,0.22,0.81,0.35,2.02,0.39v1.26c-0.03,0-0.34-0.01-0.93-0.02c-1.18-0.04-2.27-0.06-3.25-0.06
			c-1.11,0-2.54,0.03-4.29,0.08v-1.26c1.4-0.05,2.15-0.23,2.23-0.52c0.08-0.29,0.12-1.42,0.12-3.39v-1.9
			c-0.83-0.07-1.94-0.11-3.34-0.11C131.63,15.6,130.55,15.64,129.74,15.71z"/>
		<path class="st0" d="M158.54,21.52v1.26l-1.19-0.04c-0.63-0.03-1.26-0.04-1.89-0.04c-0.97,0-1.89,0.03-2.76,0.08l-0.15-0.17
			l0.17-2.1l-3.23,2.4c-0.58,0.13-1.09,0.2-1.53,0.2c-1.09,0-1.93-0.33-2.53-0.97c-0.59-0.65-0.89-1.6-0.89-2.84
			c0-1.53,0.41-2.61,1.22-3.24c1.05-0.83,3.37-1.56,6.96-2.21c-0.02-1.23-0.23-2.12-0.63-2.67c-0.57-0.76-1.44-1.14-2.63-1.14
			c-0.28,0-0.56,0.03-0.86,0.1c-0.29,0.07-0.59,0.17-0.89,0.32l-0.7,1.64l-1.05-0.26l0.03-0.69l-0.02-0.68l-0.02-0.62
			c1.58-0.98,2.71-1.59,3.4-1.84c0.5-0.19,1.21-0.28,2.1-0.28c1.22,0,2.2,0.18,2.96,0.55c0.76,0.37,1.32,0.87,1.67,1.5
			c0.35,0.63,0.53,1.55,0.53,2.76c0,0.51-0.02,1.41-0.07,2.72c-0.04,1.35-0.06,2.43-0.06,3.24c0,1.29,0.04,2.08,0.11,2.36
			c0.04,0.17,0.14,0.3,0.3,0.39C157.06,21.33,157.61,21.42,158.54,21.52z M152.72,15.18c-1.82,0.39-3,0.82-3.54,1.28
			c-0.54,0.46-0.82,1.08-0.82,1.85c0,0.63,0.18,1.13,0.53,1.49c0.35,0.36,0.79,0.54,1.33,0.54c0.82,0,1.65-0.46,2.51-1.38V15.18z"/>
		<path class="st0" d="M166.39,15.71v1.9c0,1.97,0.04,3.1,0.12,3.39c0.08,0.3,0.83,0.47,2.23,0.51v1.26c-0.01,0-0.32-0.01-0.93-0.02
			c-1.22-0.04-2.33-0.06-3.36-0.06c-1.01,0-2.41,0.03-4.18,0.08v-1.26c1.17-0.04,1.84-0.17,1.99-0.37c0.15-0.2,0.23-2,0.23-5.38
			c0-3.84-0.07-5.87-0.21-6.09c-0.14-0.22-0.81-0.34-2.01-0.37V8.05c0.03,0,0.34,0.01,0.93,0.03c1.15,0.04,2.24,0.06,3.25,0.06
			c1.18,0,2.6-0.03,4.29-0.08v1.26c-1.42,0.04-2.17,0.21-2.24,0.5c-0.07,0.29-0.11,1.18-0.11,2.67v1.69
			c1.1,0.06,2.19,0.09,3.26,0.09c1.31,0,2.42-0.03,3.32-0.09v-1.69c0-1.52-0.04-2.42-0.13-2.69c-0.09-0.27-0.83-0.43-2.22-0.47V8.05
			c1.68,0.06,3.11,0.08,4.29,0.08c1.05,0,2.45-0.03,4.18-0.08v1.26c-1.16,0.03-1.83,0.15-1.98,0.34c-0.16,0.2-0.24,1.91-0.24,5.14
			c0,4.01,0.07,6.12,0.21,6.34c0.14,0.22,0.81,0.35,2.01,0.39v1.26c-0.03,0-0.34-0.01-0.93-0.02c-1.18-0.04-2.27-0.06-3.25-0.06
			c-1.11,0-2.54,0.03-4.29,0.08v-1.26c1.4-0.05,2.14-0.23,2.22-0.52c0.08-0.29,0.12-1.42,0.12-3.39v-1.9
			c-0.83-0.07-1.94-0.11-3.34-0.11C168.28,15.6,167.2,15.64,166.39,15.71z"/>
		<path class="st0" d="M192.6,13.34h-1.26c-0.07-1.24-0.16-1.96-0.27-2.15c-0.13-0.29-0.44-0.56-0.91-0.8
			c-0.48-0.24-1.07-0.36-1.79-0.36c-1.1,0-1.9,0.31-2.41,0.94c-0.5,0.63-0.76,1.75-0.76,3.38c0,2.06,0.47,3.65,1.41,4.78
			c0.94,1.12,2.15,1.69,3.63,1.69c0.54,0,1.03-0.05,1.48-0.14c0.45-0.09,0.86-0.23,1.23-0.4l0.26,0.34
			c-0.22,0.49-0.43,0.99-0.63,1.49c-0.68,0.34-1.37,0.59-2.08,0.76c-0.71,0.17-1.42,0.25-2.15,0.25c-2.25,0-4-0.62-5.26-1.87
			c-1.26-1.25-1.88-3.02-1.88-5.31c0-0.85,0.08-1.61,0.25-2.3c0.17-0.69,0.39-1.27,0.67-1.75c0.29-0.48,0.6-0.87,0.94-1.17
			c0.21-0.17,1.09-0.74,2.66-1.72c0.91-0.58,1.59-0.94,2-1.07c0.42-0.14,0.98-0.2,1.68-0.2c0.62,0,1.22,0.05,1.81,0.14
			c0.59,0.09,1.16,0.23,1.72,0.42l0.26,0.28C192.86,10.3,192.65,11.89,192.6,13.34z"/>
	</g>
	<g>
		<path class="st0" d="M49.53,46.54v-1.26l0.93-0.06c0.75-0.04,1.23-0.17,1.42-0.39c0.19-0.22,0.3-0.96,0.33-2.23
			c0.08-2.55,0.13-5.32,0.13-8.3c0-1.58-0.01-3.38-0.02-5.4c-0.01-1.22-0.08-1.97-0.21-2.23c-0.06-0.13-0.18-0.24-0.34-0.33
			c-0.17-0.08-0.9-0.17-2.2-0.26v-1.26c1.24,0.03,2.46,0.04,3.66,0.04c1.39,0,2.73-0.01,4.01-0.04c0.56,1.31,1.14,2.61,1.74,3.9
			c0.42,0.92,2.3,4.81,5.63,11.68c3.53-7.05,5.99-12.25,7.4-15.58c1.24,0.08,2.42,0.13,3.54,0.13c1.31,0,2.58-0.04,3.8-0.13v1.26
			c-1.38,0.08-2.16,0.2-2.34,0.36c-0.18,0.16-0.3,0.64-0.35,1.44c-0.08,1.3-0.13,3.77-0.13,7.42c0,1.84,0.02,3.78,0.06,5.83
			c0.04,2.04,0.12,3.21,0.22,3.48c0.07,0.16,0.18,0.28,0.31,0.37c0.14,0.08,0.87,0.19,2.21,0.31v1.26
			c-1.68-0.08-3.17-0.12-4.49-0.12c-1.33,0-3.13,0.04-5.41,0.12v-1.26l0.91-0.03c0.72-0.03,1.17-0.13,1.35-0.3
			c0.18-0.17,0.3-0.63,0.35-1.37c0.05-0.74,0.08-2.46,0.08-5.16v-9.35c-1.6,3.19-3.63,7.38-6.11,12.55
			c-1.02,2.13-1.81,3.87-2.38,5.21h-1.01c-0.77-1.77-1.81-4.02-3.1-6.74l-5.35-11.02v2.1c0,5.81,0.03,9.82,0.08,12.01
			c0.03,0.91,0.15,1.47,0.36,1.68c0.21,0.21,0.98,0.35,2.33,0.41v1.26c-1.06-0.08-2.13-0.12-3.19-0.12
			C52.19,46.42,50.77,46.46,49.53,46.54z"/>
		<path class="st0" d="M81.54,39.19c0-2.45,0.57-4.29,1.72-5.52c1.37-1.46,3.35-2.19,5.95-2.19c2.58,0,4.46,0.58,5.65,1.75
			c1.19,1.17,1.78,3.01,1.78,5.53c0,2.59-0.69,4.59-2.05,6c-1.37,1.41-3.27,2.11-5.71,2.11c-2.39,0-4.22-0.66-5.47-1.97
			C82.16,43.6,81.54,41.69,81.54,39.19z M85.82,38.13c0,2.76,0.35,4.72,1.06,5.89c0.55,0.9,1.37,1.35,2.47,1.35
			c0.96,0,1.71-0.38,2.23-1.15c0.52-0.77,0.79-2.16,0.79-4.18c0-2.78-0.32-4.7-0.96-5.77C90.87,33.42,90.04,33,88.92,33
			c-0.96,0-1.72,0.39-2.28,1.17C86.09,34.94,85.82,36.26,85.82,38.13z"/>
		<path class="st0" d="M110.46,37.11h-1.26c-0.07-1.24-0.16-1.96-0.27-2.15c-0.13-0.29-0.44-0.56-0.91-0.8
			c-0.47-0.24-1.07-0.36-1.79-0.36c-1.1,0-1.9,0.31-2.41,0.94c-0.51,0.63-0.75,1.75-0.75,3.38c0,2.06,0.47,3.65,1.41,4.78
			c0.94,1.12,2.15,1.68,3.63,1.68c0.54,0,1.03-0.05,1.48-0.14c0.45-0.1,0.86-0.23,1.23-0.41l0.26,0.34
			c-0.22,0.49-0.43,0.99-0.62,1.49c-0.68,0.34-1.38,0.59-2.08,0.76c-0.71,0.17-1.42,0.25-2.15,0.25c-2.25,0-4-0.62-5.26-1.87
			c-1.25-1.24-1.88-3.01-1.88-5.31c0-0.85,0.08-1.62,0.25-2.3c0.16-0.69,0.39-1.27,0.67-1.75c0.28-0.48,0.59-0.87,0.94-1.17
			c0.21-0.17,1.09-0.74,2.66-1.72c0.92-0.58,1.59-0.93,2-1.07c0.42-0.13,0.98-0.2,1.68-0.2c0.62,0,1.22,0.05,1.81,0.14
			c0.59,0.09,1.16,0.23,1.72,0.42l0.26,0.28C110.72,34.07,110.51,35.66,110.46,37.11z"/>
		<path class="st0" d="M119.12,39.48v1.9c0,1.97,0.04,3.1,0.12,3.4c0.08,0.29,0.82,0.46,2.23,0.51v1.26c-0.01,0-0.32-0.01-0.94-0.02
			c-1.21-0.04-2.33-0.06-3.36-0.06c-1.01,0-2.4,0.03-4.18,0.08v-1.26c1.18-0.04,1.84-0.16,2-0.37c0.15-0.2,0.23-1.99,0.23-5.38
			c0-3.84-0.07-5.87-0.21-6.09c-0.14-0.22-0.81-0.34-2.01-0.37v-1.26c0.03,0,0.34,0.01,0.93,0.03c1.16,0.04,2.24,0.05,3.25,0.05
			c1.18,0,2.61-0.03,4.29-0.08v1.26c-1.42,0.04-2.17,0.21-2.24,0.49c-0.07,0.29-0.11,1.18-0.11,2.67v1.69
			c1.1,0.06,2.19,0.09,3.26,0.09c1.31,0,2.42-0.03,3.32-0.09v-1.69c0-1.52-0.04-2.42-0.13-2.69c-0.09-0.28-0.83-0.43-2.22-0.47
			v-1.26c1.68,0.06,3.12,0.08,4.29,0.08c1.05,0,2.45-0.03,4.18-0.08v1.26c-1.16,0.03-1.82,0.14-1.99,0.34
			c-0.16,0.2-0.23,1.91-0.23,5.14c0,4.01,0.07,6.12,0.21,6.34c0.14,0.22,0.81,0.35,2.01,0.39v1.26c-0.03,0-0.34-0.01-0.93-0.02
			c-1.19-0.04-2.27-0.06-3.25-0.06c-1.11,0-2.54,0.03-4.29,0.08v-1.26c1.4-0.05,2.14-0.22,2.23-0.52c0.08-0.29,0.12-1.42,0.12-3.39
			v-1.9c-0.83-0.07-1.94-0.11-3.34-0.11C121.01,39.37,119.93,39.41,119.12,39.48z"/>
		<path class="st0" d="M147.93,45.29v1.26l-1.19-0.04c-0.63-0.03-1.26-0.04-1.89-0.04c-0.97,0-1.89,0.03-2.76,0.08l-0.15-0.17
			l0.17-2.1l-3.22,2.4c-0.58,0.13-1.09,0.2-1.53,0.2c-1.09,0-1.93-0.32-2.53-0.97c-0.6-0.65-0.9-1.59-0.9-2.84
			c0-1.53,0.41-2.61,1.22-3.24c1.05-0.82,3.37-1.56,6.96-2.21c-0.02-1.23-0.23-2.12-0.63-2.67c-0.57-0.76-1.44-1.14-2.63-1.14
			c-0.28,0-0.56,0.03-0.86,0.1c-0.29,0.07-0.59,0.17-0.89,0.31l-0.7,1.64l-1.05-0.26l0.03-0.69l-0.01-0.68l-0.02-0.62
			c1.58-0.98,2.71-1.59,3.4-1.83c0.5-0.18,1.2-0.28,2.1-0.28c1.21,0,2.2,0.18,2.96,0.55c0.76,0.37,1.32,0.87,1.67,1.5
			c0.35,0.63,0.52,1.55,0.52,2.76c0,0.51-0.02,1.42-0.06,2.72c-0.04,1.34-0.06,2.42-0.06,3.24c0,1.29,0.04,2.08,0.11,2.36
			c0.04,0.17,0.14,0.29,0.3,0.39C146.44,45.1,146.99,45.19,147.93,45.29z M142.09,38.95c-1.81,0.39-2.99,0.82-3.54,1.28
			c-0.55,0.46-0.82,1.08-0.82,1.85c0,0.63,0.17,1.13,0.52,1.49c0.35,0.36,0.79,0.54,1.33,0.54c0.82,0,1.65-0.46,2.5-1.38V38.95z"/>
		<path class="st0" d="M149.44,33.92v-1.17c1.82-0.16,3.31-0.41,4.5-0.74l1.66-0.52c0.14,0,0.22,0.12,0.22,0.36
			c0,0.2-0.02,0.48-0.05,0.84l-0.04,1.42l2.52-1.99c0.53-0.42,1.41-0.64,2.64-0.64c1.75,0,3.15,0.54,4.21,1.63
			c1.06,1.08,1.59,2.55,1.59,4.39c0,0.92-0.13,1.83-0.4,2.73c-0.27,0.89-0.58,1.6-0.94,2.13c-0.36,0.53-1,1.15-1.91,1.85
			c-1.56,1.26-2.49,1.97-2.79,2.15c-0.59,0.34-1.3,0.51-2.13,0.51c-0.46,0-0.93-0.06-1.4-0.17c-0.47-0.11-0.93-0.28-1.38-0.5
			l0.06,4.69c0.04,1.13,0.16,1.79,0.36,1.98c0.2,0.19,0.96,0.28,2.3,0.28v1.26c-1.61-0.06-3.01-0.08-4.2-0.08
			c-2.28,0-3.89,0.03-4.82,0.08v-1.26c1.13-0.03,1.77-0.09,1.94-0.18c0.11-0.06,0.18-0.16,0.24-0.3c0.09-0.25,0.16-1.31,0.21-3.18
			c0.03-2.63,0.04-4.59,0.04-5.87l-0.03-6.17c-0.01-1.81-0.07-2.85-0.17-3.11c-0.05-0.13-0.13-0.23-0.24-0.3
			C151.25,33.97,150.58,33.92,149.44,33.92z M155.73,43.19c0.47,0.6,0.98,1.05,1.52,1.35c0.55,0.3,1.15,0.46,1.79,0.46
			c1.07,0,1.94-0.46,2.62-1.38c0.68-0.92,1.02-2.4,1.02-4.45c0-1.65-0.35-2.9-1.05-3.76c-0.69-0.85-1.58-1.28-2.66-1.28
			c-0.54,0-1.08,0.13-1.63,0.39c-0.55,0.26-1.09,0.65-1.63,1.18V43.19z"/>
		<path class="st0" d="M182.9,24.19l1.13,0.38c-0.41,2.65-1.91,3.98-4.51,3.98c-0.48,0-1.18-0.04-2.09-0.13
			c-0.54-0.05-1.05-0.07-1.53-0.07c-3,0-4.58,2.28-4.71,6.85c1.27-2.47,3.48-3.71,6.61-3.71c4.74,0,7.11,2.4,7.11,7.19
			c0,2.78-0.71,4.84-2.13,6.18c-1.42,1.34-3.33,2.02-5.73,2.02c-1.52,0-2.85-0.31-4-0.92c-1.15-0.62-2-1.6-2.54-2.95
			c-0.55-1.35-0.82-3.57-0.82-6.65c0-2.7,0.21-4.88,0.64-6.55c0.43-1.67,1.1-2.88,2.02-3.62c0.92-0.74,2.24-1.12,3.97-1.12
			c0.66,0,1.33,0.04,2.01,0.12c1.12,0.14,1.9,0.21,2.34,0.21C181.55,25.41,182.29,25,182.9,24.19z M177.16,33
			c-2.07,0-3.11,1.74-3.11,5.21c0,2.72,0.31,4.59,0.94,5.62c0.63,1.03,1.5,1.55,2.6,1.55c0.99,0,1.74-0.39,2.26-1.18
			c0.52-0.79,0.78-2.16,0.78-4.12c0-2.49-0.26-4.29-0.77-5.4C179.35,33.56,178.44,33,177.16,33z"/>
		<path class="st0" d="M201.31,45.29v1.26l-1.19-0.04c-0.63-0.03-1.26-0.04-1.89-0.04c-0.97,0-1.89,0.03-2.76,0.08l-0.15-0.17
			l0.16-2.1l-3.22,2.4c-0.58,0.13-1.08,0.2-1.53,0.2c-1.09,0-1.94-0.32-2.53-0.97c-0.6-0.65-0.9-1.59-0.9-2.84
			c0-1.53,0.4-2.61,1.22-3.24c1.05-0.82,3.37-1.56,6.96-2.21c-0.02-1.23-0.23-2.12-0.63-2.67c-0.57-0.76-1.44-1.14-2.63-1.14
			c-0.28,0-0.56,0.03-0.86,0.1c-0.29,0.07-0.59,0.17-0.89,0.31l-0.69,1.64l-1.05-0.26l0.03-0.69l-0.01-0.68l-0.02-0.62
			c1.57-0.98,2.71-1.59,3.4-1.83c0.5-0.18,1.2-0.28,2.1-0.28c1.22,0,2.2,0.18,2.96,0.55c0.76,0.37,1.32,0.87,1.67,1.5
			c0.35,0.63,0.52,1.55,0.52,2.76c0,0.51-0.02,1.42-0.06,2.72c-0.04,1.34-0.06,2.42-0.06,3.24c0,1.29,0.04,2.08,0.11,2.36
			c0.04,0.17,0.14,0.29,0.3,0.39C199.83,45.1,200.38,45.19,201.31,45.29z M195.48,38.95c-1.81,0.39-2.99,0.82-3.54,1.28
			c-0.54,0.46-0.81,1.08-0.81,1.85c0,0.63,0.17,1.13,0.52,1.49c0.35,0.36,0.79,0.54,1.33,0.54c0.81,0,1.65-0.46,2.5-1.38V38.95z"/>
		<path class="st0" d="M209.16,39.48v1.9c0,1.97,0.04,3.1,0.12,3.4c0.08,0.29,0.82,0.46,2.22,0.51v1.26c-0.01,0-0.32-0.01-0.93-0.02
			c-1.21-0.04-2.33-0.06-3.35-0.06c-1.01,0-2.41,0.03-4.18,0.08v-1.26c1.18-0.04,1.84-0.16,2-0.37c0.15-0.2,0.23-1.99,0.23-5.38
			c0-3.84-0.07-5.87-0.21-6.09c-0.14-0.22-0.81-0.34-2.01-0.37v-1.26c0.03,0,0.34,0.01,0.93,0.03c1.15,0.04,2.24,0.05,3.25,0.05
			c1.17,0,2.6-0.03,4.29-0.08v1.26c-1.42,0.04-2.17,0.21-2.24,0.49c-0.07,0.29-0.11,1.18-0.11,2.67v1.69
			c1.1,0.06,2.19,0.09,3.26,0.09c1.31,0,2.42-0.03,3.32-0.09v-1.69c0-1.52-0.04-2.42-0.13-2.69c-0.09-0.28-0.83-0.43-2.22-0.47
			v-1.26c1.68,0.06,3.12,0.08,4.29,0.08c1.05,0,2.45-0.03,4.18-0.08v1.26c-1.16,0.03-1.82,0.14-1.98,0.34
			c-0.16,0.2-0.24,1.91-0.24,5.14c0,4.01,0.07,6.12,0.21,6.34c0.14,0.22,0.81,0.35,2.02,0.39v1.26c-0.03,0-0.34-0.01-0.93-0.02
			c-1.18-0.04-2.27-0.06-3.25-0.06c-1.12,0-2.54,0.03-4.29,0.08v-1.26c1.4-0.05,2.14-0.22,2.23-0.52s0.12-1.42,0.12-3.39v-1.9
			c-0.83-0.07-1.94-0.11-3.34-0.11C211.05,39.37,209.97,39.41,209.16,39.48z"/>
		<path class="st0" d="M229.99,38.56c2.25-1.89,4.53-4.14,6.83-6.73c0.64,0.06,1.32,0.08,2.06,0.08c0.7,0,1.4-0.03,2.11-0.08v1.26
			c-1.1,0.06-1.77,0.12-1.99,0.19c-0.23,0.06-0.57,0.27-1.03,0.62c-0.47,0.35-1.8,1.5-4.01,3.45l2.26,2.53
			c2.56,2.92,4.03,4.54,4.41,4.86c0.38,0.32,0.84,0.51,1.38,0.56v1.26c-1.04-0.05-2.1-0.08-3.18-0.08c-0.85,0-1.61,0.03-2.28,0.08
			c-2.07-2.76-4.24-5.24-6.54-7.46v1.79c0,2.24,0.03,3.52,0.09,3.86c0.06,0.33,0.81,0.52,2.26,0.56v1.26
			c-0.01,0-0.32-0.01-0.93-0.02c-1.22-0.04-2.33-0.06-3.36-0.06c-1.01,0-2.41,0.03-4.18,0.08v-1.26c1.18-0.04,1.84-0.16,1.99-0.37
			c0.15-0.2,0.23-1.99,0.23-5.38c0-3.84-0.07-5.87-0.21-6.09c-0.14-0.22-0.81-0.34-2.01-0.37v-1.26c0.01,0,0.32,0.01,0.93,0.03
			c1.12,0.04,2.2,0.05,3.25,0.05c1.25,0,2.68-0.03,4.29-0.08v1.26c-1.31,0.06-2.03,0.2-2.16,0.42c-0.13,0.22-0.19,1.34-0.19,3.37
			V38.56z"/>
	</g>
	<g>
		<rect y="26.06" class="st0" width="37.64" height="0.57"/>
		<rect x="94.19" y="26.31" class="st0" width="74.92" height="0.57"/>
		<rect x="184.99" y="26.67" class="st0" width="57.48" height="0.57"/>
	</g>
</g>
</svg>
